<svg width="314" height="293" version="1.1" xmlns="http://www.w3.org/2000/svg" desc="Created with imagetracer.js version 1.2.6" ><path fill="rgb(164,158,206)" stroke="rgb(164,158,206)" stroke-width="1" opacity="1" d="M 82.5 133 L 83 137.5 L 82 137.5 L 82.5 133 Z " /><path fill="rgb(164,158,206)" stroke="rgb(164,158,206)" stroke-width="1" opacity="1" d="M 82.5 143 L 83 147.5 L 82 147.5 L 82.5 143 Z " /><path fill="rgb(164,158,206)" stroke="rgb(164,158,206)" stroke-width="1" opacity="1" d="M 83.5 151 L 84 153.5 L 83 153.5 L 83.5 151 Z " /><path fill="rgb(164,158,206)" stroke="rgb(164,158,206)" stroke-width="1" opacity="1" d="M 217.5 162 L 220 162.5 L 217.5 163 L 217.5 162 Z " /><path fill="rgb(164,158,206)" stroke="rgb(164,158,206)" stroke-width="1" opacity="1" d="M 226.5 163 L 231 163.5 L 226.5 164 L 226.5 163 Z " /><path fill="rgb(164,158,206)" stroke="rgb(164,158,206)" stroke-width="1" opacity="1" d="M 86.5 164 L 87 166.5 L 86 166.5 L 86.5 164 Z " /><path fill="rgb(164,158,206)" stroke="rgb(164,158,206)" stroke-width="1" opacity="1" d="M 233.5 164 L 238 164.5 L 233.5 165 L 233.5 164 Z " /><path fill="rgb(164,158,206)" stroke="rgb(164,158,206)" stroke-width="1" opacity="1" d="M 240.5 165 L 244 165.5 L 240.5 166 L 240.5 165 Z " /><path fill="rgb(164,158,206)" stroke="rgb(164,158,206)" stroke-width="1" opacity="1" d="M 250.5 167 L 254 167.5 L 250.5 168 L 250.5 167 Z " /><path fill="rgb(164,158,206)" stroke="rgb(164,158,206)" stroke-width="1" opacity="1" d="M 255.5 168 L 271.5 173 L 282 181.5 L 279.5 180 L 271.5 174 L 255.5 169 L 255.5 168 Z " /><path fill="rgb(164,158,206)" stroke="rgb(164,158,206)" stroke-width="1" opacity="1" d="M 283.5 182 L 308 205.5 L 307.5 207 L 295.5 194 L 283.5 182 Z " /><path fill="rgb(164,158,206)" stroke="rgb(164,158,206)" stroke-width="1" opacity="1" d="M 97.5 205 L 91 212.5 L 87.5 218 L 88 216.5 Q 91 209 97.5 205 Z " /><path fill="rgb(164,158,206)" stroke="rgb(164,158,206)" stroke-width="1" opacity="1" d="M 308.5 208 L 309 210.5 L 308 210.5 L 308.5 208 Z " /><path fill="rgb(164,158,206)" stroke="rgb(164,158,206)" stroke-width="1" opacity="1" d="M 309.5 212 L 310 214.5 L 309 214.5 L 309.5 212 Z " /><path fill="rgb(164,158,206)" stroke="rgb(164,158,206)" stroke-width="1" opacity="1" d="M 310.5 216 L 313 220.5 L 310 218.5 L 310.5 216 Z " /><path fill="rgb(164,158,206)" stroke="rgb(164,158,206)" stroke-width="1" opacity="1" d="M 86.5 219 L 86 220.5 L 83.5 225 L 84 223.5 L 86.5 219 Z " /><path fill="rgb(164,158,206)" stroke="rgb(164,158,206)" stroke-width="1" opacity="1" d="M 81.5 225 L 80.5 227 L 78.5 228 L 79.5 226 L 81.5 225 Z " /><path fill="rgb(164,158,206)" stroke="rgb(164,158,206)" stroke-width="1" opacity="1" d="M 76.5 228 L 75.5 230 L 73.5 231 L 74.5 229 L 76.5 228 Z " /><path fill="rgb(164,158,206)" stroke="rgb(164,158,206)" stroke-width="1" opacity="1" d="M 71.5 231 L 70.5 233 L 68.5 234 L 69.5 232 L 71.5 231 Z " /><path fill="rgb(164,158,206)" stroke="rgb(164,158,206)" stroke-width="1" opacity="1" d="M 66.5 234 L 65.5 236 L 63.5 237 L 64.5 235 L 66.5 234 Z " /><path fill="rgb(164,158,206)" stroke="rgb(164,158,206)" stroke-width="1" opacity="1" d="M 62.5 238 L 61 240.5 L 56.5 247 L 58 244.5 L 62.5 238 Z " /><path fill="rgb(164,158,206)" stroke="rgb(164,158,206)" stroke-width="1" opacity="1" d="M 54.5 249 L 55 250.5 L 53.5 253 L 53 251.5 L 54.5 249 Z " /><path fill="rgb(164,158,206)" stroke="rgb(164,158,206)" stroke-width="1" opacity="1" d="M 52.5 254 L 53 255.5 L 47.5 269 L 47 266.5 L 52.5 254 Z " /><path fill="rgb(164,158,206)" stroke="rgb(164,158,206)" stroke-width="1" opacity="1" d="M 309.5 266 L 313 268.5 L 311.5 268 L 309.5 266 Z " /><path fill="rgb(164,158,206)" stroke="rgb(164,158,206)" stroke-width="1" opacity="1" d="M 46.5 270 L 47 273.5 L 46 273.5 L 46.5 270 Z " /><path fill="rgb(164,158,206)" stroke="rgb(164,158,206)" stroke-width="1" opacity="1" d="M 45.5 275 L 46 277.5 L 45 277.5 L 45.5 275 Z " /><path fill="rgb(164,158,206)" stroke="rgb(164,158,206)" stroke-width="1" opacity="1" d="M 44.5 279 L 45 282.5 L 44 282.5 L 44.5 279 Z " /><path fill="rgb(164,158,206)" stroke="rgb(164,158,206)" stroke-width="1" opacity="1" d="M 43.5 284 L 44 286.5 L 43 286.5 L 43.5 284 Z " /><path fill="rgb(164,158,206)" stroke="rgb(164,158,206)" stroke-width="1" opacity="1" d="M 42.5 288 L 43 291.5 L 42 291.5 L 42.5 288 Z " /><path fill="rgb(155,150,221)" stroke="rgb(155,150,221)" stroke-width="1" opacity="1" d="M 0 0 L 314 0 L 314 221.5 L 313 221.5 L 310 215.5 L 308 205.5 L 295.5 193 Q 283.9 181.1 269.5 172 L 243.5 165 L 231.5 164 L 230.5 163 L 220 163 L 221.5 160 L 231 151.5 L 235 143.5 L 235.5 139 L 241 143 L 241 127.5 L 249 100.5 L 249 71.5 L 248 70.5 L 248 62.5 L 243 46.5 L 232.5 31 Q 225 23 213.5 19 L 200.5 17 L 192.5 13 L 179.5 12 L 171.5 14 L 170.5 13 L 159.5 13 Q 155.5 16.5 146.5 15 L 144.5 14 L 137.5 16 L 136.5 15 L 126.5 15 L 110.5 23 L 96 36.5 L 93.5 40 L 83 48.5 Q 76.5 55 74 65.5 L 66 76.5 L 63 85.5 L 63 97.5 L 66 107.5 L 72 117.5 L 72 126.5 L 74 133.5 L 80.5 142 Q 83.3 141.4 82 147.5 L 88 174.5 L 95 191.5 L 98 204.5 L 90 212.5 L 82.5 225 L 63 236.5 L 54 249.5 L 47 266.5 L 42 293 L 0.5 293 L 0 292.5 L 0 0 Z " /><path fill="rgb(155,150,221)" stroke="rgb(155,150,221)" stroke-width="1" opacity="1" d="M 76.5 97 L 80 104 L 83 105.5 L 77 106 L 76.5 97 Z " /><path fill="rgb(155,150,221)" stroke="rgb(155,150,221)" stroke-width="1" opacity="1" d="M 84.5 111 L 87 111 L 87 116.5 L 81.5 137 L 79 133.5 L 77 120.5 L 78.5 121 Q 82.3 122.3 81 118.5 L 79 113.5 L 84.5 111 Z " /><path fill="rgb(155,150,221)" stroke="rgb(155,150,221)" stroke-width="1" opacity="1" d="M 313.5 260 L 314 268.5 L 311.5 267 Q 308.9 267.8 310 264.5 L 313.5 260 Z " /><path fill="rgb(71,60,58)" stroke="rgb(71,60,58)" stroke-width="1" opacity="1" d="M 182.5 12 L 191.5 13 L 199.5 17 L 214.5 20 L 224.5 25 L 228 28.5 L 225.5 27 Q 221 26 220 28.5 L 227 33 L 228 35.5 L 226.5 36 L 222.5 34 Q 217.7 32.3 219 36.5 Q 217 40 215 35.5 L 214 31 L 207.5 27 L 205 27 L 211 37.5 L 211 41 Q 204.4 39.3 202.5 43 L 194.5 36 L 196 38.5 L 202 46.5 L 203 51.5 L 194.5 60 L 193 60 Q 190.1 48.2 180.5 42 L 179 42.5 L 185 50.5 L 186 56 L 183.5 55 L 182.5 58 L 181 57.5 L 180.5 60 L 178 59 L 176.5 56 Q 174.3 56.8 175 54.5 Q 173.7 50.2 169 51 L 168 59.5 L 169 61.5 L 165.5 59 L 160.5 58 L 156 59 Q 157 62 154 61 Q 155.1 58.3 152.5 59 L 150 62.5 L 154 72 L 147 71 Q 148.3 68 144.5 69 L 141 67 L 142 71.5 L 141.5 74 L 134.5 64 L 127.5 66 L 126 62 Q 122.2 63.5 123 60.5 L 121.5 58 Q 122.8 60.3 124 57.5 L 126.5 54 L 131 50.5 L 135 44.5 L 132.5 46 L 127.5 47 L 124.5 50 L 120.5 50 L 116.5 49 L 118 51.5 L 117.5 55 L 102.5 55 L 92.5 58 L 89.5 57 L 88 60 L 75 65.5 Q 75.8 67.8 73.5 67 L 72 67.5 Q 77.4 64.8 75.5 62 Q 77.3 64.8 79 60.5 L 80.5 58 L 90 52 L 92 48.5 L 89.5 45 L 82.5 51 L 85 47.5 L 86.5 45 L 95 40 L 102.5 31 L 117.5 19 Q 123.5 15 133.5 15 L 134.5 16 L 142.5 16 L 143.5 15 L 153.5 15 L 155.5 15 L 161.5 13 L 166.5 13 L 167.5 14 L 176.5 14 L 182.5 12 Z M 192 33 L 193 35 Q 194 32 192 33 Z M 145 56 L 146 58 Q 147 55 145 56 Z " /><path fill="rgb(71,60,58)" stroke="rgb(71,60,58)" stroke-width="1" opacity="1" d="M 229.5 29 L 231.5 32 L 229.5 29 Z " /><path fill="rgb(71,60,58)" stroke="rgb(71,60,58)" stroke-width="1" opacity="1" d="M 247.5 64 L 248 67.5 L 247 67.5 L 247.5 64 Z " /><path fill="rgb(71,60,58)" stroke="rgb(71,60,58)" stroke-width="1" opacity="1" d="M 248.5 72 L 249 86.5 L 248 86.5 L 248.5 72 Z " /><path fill="rgb(71,60,58)" stroke="rgb(71,60,58)" stroke-width="1" opacity="1" d="M 248.5 93 L 249 97.5 L 248 97.5 L 248.5 93 Z " /><path fill="rgb(71,60,58)" stroke="rgb(71,60,58)" stroke-width="1" opacity="1" d="M 76.5 95 L 76 96.5 L 75.5 101 L 75 96.5 L 76.5 95 Z " /><path fill="rgb(71,60,58)" stroke="rgb(71,60,58)" stroke-width="1" opacity="1" d="M 77.5 97 L 79 99.5 L 77 98.5 L 77.5 97 Z " /><path fill="rgb(71,60,58)" stroke="rgb(71,60,58)" stroke-width="1" opacity="1" d="M 89 99 L 91.5 99 L 100 106.5 L 98.5 107 L 89 101 L 89 99 Z " /><path fill="rgb(71,60,58)" stroke="rgb(71,60,58)" stroke-width="1" opacity="1" d="M 85.5 100 L 86 104.5 L 84 105.5 L 85.5 100 Z " /><path fill="rgb(71,60,58)" stroke="rgb(71,60,58)" stroke-width="1" opacity="1" d="M 136.5 105 Q 141.9 103.1 141 106.5 L 144 110.5 L 142.5 110 L 126 112 L 128.5 107 L 136.5 105 Z " /><path fill="rgb(71,60,58)" stroke="rgb(71,60,58)" stroke-width="1" opacity="1" d="M 124.5 108 L 125 110.5 L 124 113 Q 120.3 114.2 122 109 L 124.5 108 Z " /><path fill="rgb(71,60,58)" stroke="rgb(71,60,58)" stroke-width="1" opacity="1" d="M 67.5 109 L 69.5 112 L 67.5 109 Z " /><path fill="rgb(71,60,58)" stroke="rgb(71,60,58)" stroke-width="1" opacity="1" d="M 119.5 110 L 120 112.5 L 118 113.5 L 119.5 110 Z " /><path fill="rgb(71,60,58)" stroke="rgb(71,60,58)" stroke-width="1" opacity="1" d="M 78 112 L 80 112.5 L 78 113.5 L 78 112 Z " /><path fill="rgb(71,60,58)" stroke="rgb(71,60,58)" stroke-width="1" opacity="1" d="M 90.5 112 Q 93.8 113.8 90 115.5 L 89.5 117 L 89 113.5 L 90.5 112 Z " /><path fill="rgb(71,60,58)" stroke="rgb(71,60,58)" stroke-width="1" opacity="1" d="M 144.5 112 L 146.5 115 L 144.5 112 Z " /><path fill="rgb(71,60,58)" stroke="rgb(71,60,58)" stroke-width="1" opacity="1" d="M 100.5 113 L 101.5 115 L 100.5 113 Z " /><path fill="rgb(71,60,58)" stroke="rgb(71,60,58)" stroke-width="1" opacity="1" d="M 104.5 117 L 110 117.5 L 104.5 118 L 104.5 117 Z " /><path fill="rgb(71,60,58)" stroke="rgb(71,60,58)" stroke-width="1" opacity="1" d="M 119.5 117 L 118.5 119 L 119.5 117 Z " /><path fill="rgb(71,60,58)" stroke="rgb(71,60,58)" stroke-width="1" opacity="1" d="M 80.5 118 L 81 120.5 L 80 120.5 L 80.5 118 Z " /><path fill="rgb(71,60,58)" stroke="rgb(71,60,58)" stroke-width="1" opacity="1" d="M 92.5 120 L 95 123.5 L 94 123.5 L 92.5 120 Z " /><path fill="rgb(71,60,58)" stroke="rgb(71,60,58)" stroke-width="1" opacity="1" d="M 123.5 120 L 121.5 123 L 123.5 120 Z " /><path fill="rgb(71,60,58)" stroke="rgb(71,60,58)" stroke-width="1" opacity="1" d="M 226.5 120 Q 231.8 118.8 233 121.5 L 232.5 123 L 232 121 L 226.5 121 L 226.5 120 Z " /><path fill="rgb(71,60,58)" stroke="rgb(71,60,58)" stroke-width="1" opacity="1" d="M 132.5 121 L 136 121.5 Q 134.8 124.2 133.5 122 L 132 122.5 Q 134.5 124 131 125.5 Q 131.7 128.1 129 127 L 130 122 L 132.5 121 Z " /><path fill="rgb(71,60,58)" stroke="rgb(71,60,58)" stroke-width="1" opacity="1" d="M 141.5 121 Q 147.3 121.3 150 124.5 L 148 125.5 L 148.5 124 L 146.5 125 L 146.5 123 L 141.5 122 L 141.5 121 Z " /><path fill="rgb(71,60,58)" stroke="rgb(71,60,58)" stroke-width="1" opacity="1" d="M 174.5 121 L 177 121.5 L 174.5 122 L 174.5 121 Z " /><path fill="rgb(71,60,58)" stroke="rgb(71,60,58)" stroke-width="1" opacity="1" d="M 218.5 121 L 222 121.5 L 218.5 122 L 218.5 121 Z " /><path fill="rgb(71,60,58)" stroke="rgb(71,60,58)" stroke-width="1" opacity="1" d="M 112.5 122 L 113.5 124 L 112.5 122 Z " /><path fill="rgb(71,60,58)" stroke="rgb(71,60,58)" stroke-width="1" opacity="1" d="M 137.5 122 L 138 124.5 L 137 124.5 L 137.5 122 Z " /><path fill="rgb(71,60,58)" stroke="rgb(71,60,58)" stroke-width="1" opacity="1" d="M 72.5 123 L 73 125.5 L 72 125.5 L 72.5 123 Z " /><path fill="rgb(71,60,58)" stroke="rgb(71,60,58)" stroke-width="1" opacity="1" d="M 97.5 123 L 99 126.5 L 98 126.5 L 97.5 123 Z " /><path fill="rgb(71,60,58)" stroke="rgb(71,60,58)" stroke-width="1" opacity="1" d="M 208.5 123 L 208 124.5 Q 205.3 133.8 198.5 139 L 197 135.5 L 196 125.5 Q 197.8 127.1 199.5 124 L 207.5 124 L 208.5 123 Z " /><path fill="rgb(71,60,58)" stroke="rgb(71,60,58)" stroke-width="1" opacity="1" d="M 184.5 125 L 187 125.5 L 184.5 126 L 184.5 125 Z " /><path fill="rgb(71,60,58)" stroke="rgb(71,60,58)" stroke-width="1" opacity="1" d="M 77.5 126 L 78 128.5 L 77 128.5 L 77.5 126 Z " /><path fill="rgb(71,60,58)" stroke="rgb(71,60,58)" stroke-width="1" opacity="1" d="M 134.5 128 L 137 129 L 138 131.5 L 136.5 131 Q 134.3 131.8 135 129.5 L 134.5 128 Z " /><path fill="rgb(71,60,58)" stroke="rgb(71,60,58)" stroke-width="1" opacity="1" d="M 119.5 129 L 120 133.5 L 119 133.5 L 119.5 129 Z " /><path fill="rgb(71,60,58)" stroke="rgb(71,60,58)" stroke-width="1" opacity="1" d="M 139 129 Q 141.7 127.9 141 130.5 L 143 130.5 Q 141.8 133.3 140.5 131 Q 137.9 131.7 139 129 Z " /><path fill="rgb(71,60,58)" stroke="rgb(71,60,58)" stroke-width="1" opacity="1" d="M 240.5 129 L 241 132.5 L 240 132.5 L 240.5 129 Z " /><path fill="rgb(71,60,58)" stroke="rgb(71,60,58)" stroke-width="1" opacity="1" d="M 235.5 135 Q 235.3 139.3 238 140.5 L 235 138.5 L 235.5 135 Z " /><path fill="rgb(71,60,58)" stroke="rgb(71,60,58)" stroke-width="1" opacity="1" d="M 76.5 137 L 77.5 139 L 76.5 137 Z " /><path fill="rgb(71,60,58)" stroke="rgb(71,60,58)" stroke-width="1" opacity="1" d="M 81.5 137 L 83.5 140 L 81.5 137 Z " /><path fill="rgb(71,60,58)" stroke="rgb(71,60,58)" stroke-width="1" opacity="1" d="M 99.5 138 L 96.5 142 L 99.5 138 Z " /><path fill="rgb(71,60,58)" stroke="rgb(71,60,58)" stroke-width="1" opacity="1" d="M 79.5 140 L 80.5 142 L 79.5 140 Z " /><path fill="rgb(71,60,58)" stroke="rgb(71,60,58)" stroke-width="1" opacity="1" d="M 116.5 142 L 120 146.5 L 117 144.5 L 116.5 142 Z " /><path fill="rgb(71,60,58)" stroke="rgb(71,60,58)" stroke-width="1" opacity="1" d="M 86.5 143 L 91 143.5 L 86.5 144 L 86.5 143 Z " /><path fill="rgb(71,60,58)" stroke="rgb(71,60,58)" stroke-width="1" opacity="1" d="M 123.5 144 L 127.5 149 L 123.5 144 Z " /><path fill="rgb(71,60,58)" stroke="rgb(71,60,58)" stroke-width="1" opacity="1" d="M 148.5 149 L 147.5 151 L 146 150.5 L 148.5 149 Z " /><path fill="rgb(71,60,58)" stroke="rgb(71,60,58)" stroke-width="1" opacity="1" d="M 98.5 158 L 100.5 161 L 98 159.5 L 98.5 158 Z " /><path fill="rgb(71,60,58)" stroke="rgb(71,60,58)" stroke-width="1" opacity="1" d="M 107.5 160 L 108 162 L 113.5 163 L 115 162.5 L 114.5 164 L 117 164.5 L 114.5 165 L 106 161.5 L 107.5 160 Z " /><path fill="rgb(71,60,58)" stroke="rgb(71,60,58)" stroke-width="1" opacity="1" d="M 212.5 164 L 211.5 166 L 212.5 164 Z " /><path fill="rgb(71,60,58)" stroke="rgb(71,60,58)" stroke-width="1" opacity="1" d="M 97.5 177 L 106.5 180 L 118 181.5 L 106.5 183 Q 99.1 181.6 97.5 177 Z " /><path fill="rgb(71,60,58)" stroke="rgb(71,60,58)" stroke-width="1" opacity="1" d="M 119.5 182 L 123 183.5 L 121.5 183 Q 118.5 183.5 119.5 182 Z " /><path fill="rgb(71,60,58)" stroke="rgb(71,60,58)" stroke-width="1" opacity="1" d="M 114.5 183 L 117 183.5 L 114.5 184 L 114.5 183 Z " /><path fill="rgb(71,60,58)" stroke="rgb(71,60,58)" stroke-width="1" opacity="1" d="M 124.5 183 L 129 184.5 L 126.5 185 L 124.5 183 Z " /><path fill="rgb(71,60,58)" stroke="rgb(71,60,58)" stroke-width="1" opacity="1" d="M 86.5 277 Q 90.5 276.5 91 279.5 L 94 290.5 L 92.5 293 L 91 282.5 L 87.5 278 L 86.5 277 Z " /><path fill="rgb(71,60,58)" stroke="rgb(71,60,58)" stroke-width="1" opacity="1" d="M 86.5 280 L 90 284.5 L 88.5 291 L 88 282 Q 84.8 283 86.5 280 Z " /><path fill="rgb(71,60,58)" stroke="rgb(71,60,58)" stroke-width="1" opacity="1" d="M 150.5 284 Q 154.3 283.3 155 285.5 Q 157.8 287.2 157 292.5 L 156 292.5 Q 157 286 152.5 285 Q 149.5 285.5 150.5 284 Z " /><path fill="rgb(71,60,58)" stroke="rgb(71,60,58)" stroke-width="1" opacity="1" d="M 148.5 285 L 147.5 287 L 148.5 285 Z " /><path fill="rgb(71,60,58)" stroke="rgb(71,60,58)" stroke-width="1" opacity="1" d="M 145.5 287 L 144.5 289 L 145.5 287 Z " /><path fill="rgb(71,60,58)" stroke="rgb(71,60,58)" stroke-width="1" opacity="1" d="M 142.5 289 L 141 291.5 L 140.5 293 L 140 291.5 L 142.5 289 Z " /><path fill="rgb(71,60,58)" stroke="rgb(71,60,58)" stroke-width="1" opacity="1" d="M 148.5 289 Q 152.3 288.3 153 290.5 L 152.5 293 L 148.5 291 L 144.5 293 L 146.5 290 L 148.5 289 Z " /><path fill="rgb(4,2,2)" stroke="rgb(4,2,2)" stroke-width="1" opacity="1" d="M 81.5 106 L 85.5 106 Q 86.3 108.8 90.5 108 Q 97.8 110.2 102 115.5 L 103.5 118 Q 112.1 116.9 116.5 120 Q 123.8 114.3 138.5 116 L 148.5 118 Q 151.3 121.7 157.5 122 L 164 127.5 Q 162.8 130 159 129 Q 157.4 140.7 151 148 L 143.5 152 L 128.5 152 Q 121.3 150.2 118 144.5 L 114 134.5 L 114 123.5 L 112.5 122 Q 111.1 119.4 106.5 120 L 104 121 L 103 131.5 Q 100.8 138.3 95.5 142 Q 92 144.5 84.5 143 L 76 136.5 L 73 127.5 L 72 115.5 L 73 115.5 L 77 120.5 L 78 132.5 L 83.5 140 L 89.5 142 L 96 136.5 L 99 128.5 L 99 121.5 L 97.5 119 L 96.5 122 L 94.5 119 Q 97.5 119.9 96 115.5 L 89.5 111 L 85.5 110 L 78 112 L 77 107 L 81.5 106 Z M 127 119 L 124 120 L 119 127 L 119 136 L 123 145 Q 126 150 134 151 Q 141 152 144 149 L 149 144 L 152 135 Q 153 128 151 125 L 148 122 L 138 119 L 127 119 Z " /><path fill="rgb(4,2,2)" stroke="rgb(4,2,2)" stroke-width="1" opacity="1" d="M 198 121 L 203 122.5 Q 201.8 125 198 124 L 198 121 Z " /><path fill="rgb(4,2,2)" stroke="rgb(4,2,2)" stroke-width="1" opacity="1" d="M 139.5 122 L 141.5 123 L 143 122.5 L 144 124.5 L 143 129 L 139 127 Q 140.1 129.7 137.5 129 Q 134.3 127.3 138 125.5 L 139.5 122 Z " /><path fill="rgb(4,2,2)" stroke="rgb(4,2,2)" stroke-width="1" opacity="1" d="M 169 122 L 178.5 122 L 191 124.5 L 169.5 127 L 168 124.5 L 169 122 Z " /><path fill="rgb(4,2,2)" stroke="rgb(4,2,2)" stroke-width="1" opacity="1" d="M 148.5 286 Q 153.9 284.1 153 287.5 L 156 293 Q 153 294.3 154 290.5 Q 153.3 287.3 148.5 288 L 141.5 293 L 142 291.5 L 143.5 289 L 148.5 286 Z " /><path fill="rgb(4,2,2)" stroke="rgb(4,2,2)" stroke-width="1" opacity="1" d="M 90.5 287 L 91 293 Q 87.7 294.3 89 289.5 L 90.5 287 Z " /><path fill="rgb(44,35,33)" stroke="rgb(44,35,33)" stroke-width="1" opacity="1" d="M 205 27 L 207.5 27 L 214 31 Q 213.9 35.9 217.5 38 L 219 34 Q 223.3 33 224.5 36 L 226.5 36 L 228 35.5 L 227 33 L 220 28.5 Q 221 26 225.5 27 L 235 34.5 L 242 45.5 L 247 61.5 L 249 92.5 L 248 93.5 L 247 106.5 L 241 123.5 L 239.5 142 L 236 138.5 L 236 130.5 L 231.5 120 L 202.5 124 L 202.5 122 L 198 121 L 199 124.5 Q 197.8 127.3 196.5 125 L 179.5 123 L 171.5 119 Q 168.3 120.8 168 125.5 L 171 127 L 172 133 L 167.5 133 L 161 129.5 L 164 127.5 L 157.5 122 Q 151.8 121.8 149 118.5 L 138 101.5 L 121.5 64 Q 116 62.5 114.5 65 L 113.5 64 L 105.5 64 L 98 66 L 92 76.5 L 85 97.5 L 85 104 Q 81.2 105 80 102.5 L 76.5 95 Q 74 96 75 100.5 L 80 120 Q 74.4 121 73 116.5 L 67 108.5 L 64 98.5 L 64 84.5 L 69 72.5 L 73.5 67 Q 75.8 67.8 75 65.5 L 76 62.5 Q 79.1 51.6 87.5 46 L 89.5 45 L 92 48.5 L 90 52 L 79 59.5 L 76 63.5 L 78.5 64 L 88 60 L 89.5 57 L 94.5 58 L 102.5 55 L 118 55 Q 119 50.8 116 49.5 L 119.5 49 L 124.5 50 L 127.5 47 Q 133.1 47.6 134.5 44 L 135 45.5 L 127.5 54 L 124 56.5 L 122 59.5 L 123 62 Q 127.1 60.3 126 64.5 L 128.5 66 L 134.5 64 L 140.5 73 L 142 70.5 L 141 67 L 147 69 Q 145.9 71.7 148.5 71 L 154 72 L 150 62.5 L 152.5 59 Q 155.1 58.3 154 61 L 156 61 L 155 58.5 L 156.5 59 L 160.5 58 L 165.5 59 L 168.5 62 L 169 60.5 L 168 55.5 L 169 51 Q 173.7 50.3 175 54.5 Q 174.3 56.8 176.5 56 L 178 59 L 180.5 60 L 183.5 55 L 186 56 L 185 50.5 L 178 41.5 L 179.5 42 L 189 50.5 L 193 60 L 194.5 60 L 203 51.5 L 202 46.5 L 190 32.5 L 191.5 33 Q 193.8 32.3 193 34.5 L 202.5 43 Q 204.4 39.3 211 41 L 211 37.5 L 205 27 Z " /><path fill="rgb(44,35,33)" stroke="rgb(44,35,33)" stroke-width="1" opacity="1" d="M 144.5 56 Q 146.8 55.3 146 57.5 L 144.5 56 Z " /><path fill="rgb(44,35,33)" stroke="rgb(44,35,33)" stroke-width="1" opacity="1" d="M 94.5 114 L 95.5 116 L 94.5 114 Z " /><path fill="rgb(44,35,33)" stroke="rgb(44,35,33)" stroke-width="1" opacity="1" d="M 102.5 116 L 103.5 118 L 102.5 116 Z " /><path fill="rgb(44,35,33)" stroke="rgb(44,35,33)" stroke-width="1" opacity="1" d="M 92.5 119 L 97.5 122 L 99 121.5 L 98.5 124 L 96.5 124 Q 94.3 124.8 95 122.5 L 92.5 119 Z " /><path fill="rgb(44,35,33)" stroke="rgb(44,35,33)" stroke-width="1" opacity="1" d="M 141.5 120 L 141.5 123 Q 138.5 121.5 141.5 120 Z " /><path fill="rgb(44,35,33)" stroke="rgb(44,35,33)" stroke-width="1" opacity="1" d="M 136.5 121 Q 139.8 119.9 139 122.5 L 137.5 122 L 136.5 121 Z " /><path fill="rgb(44,35,33)" stroke="rgb(44,35,33)" stroke-width="1" opacity="1" d="M 144.5 121 L 144.5 123 L 147.5 122 L 146.5 124 Q 142.1 125.5 143 122.5 L 144.5 121 Z " /><path fill="rgb(44,35,33)" stroke="rgb(44,35,33)" stroke-width="1" opacity="1" d="M 149.5 123 L 152 126.5 L 150.5 126 L 148 124.5 L 149.5 123 Z " /><path fill="rgb(44,35,33)" stroke="rgb(44,35,33)" stroke-width="1" opacity="1" d="M 119.5 126 L 120 128.5 L 119 128.5 L 119.5 126 Z " /><path fill="rgb(44,35,33)" stroke="rgb(44,35,33)" stroke-width="1" opacity="1" d="M 134.5 126 L 139 129 Q 138 132 141 131 Q 139.9 128.3 142.5 129 L 140.5 132 L 137 130.5 Q 137.8 128.3 135.5 129 L 134.5 126 Z " /><path fill="rgb(44,35,33)" stroke="rgb(44,35,33)" stroke-width="1" opacity="1" d="M 152.5 145 L 151.5 147 L 152.5 145 Z " /><path fill="rgb(44,35,33)" stroke="rgb(44,35,33)" stroke-width="1" opacity="1" d="M 131.5 152 L 139 152.5 L 131.5 153 L 131.5 152 Z " /><path fill="rgb(44,35,33)" stroke="rgb(44,35,33)" stroke-width="1" opacity="1" d="M 108.5 160 L 109.5 162 Q 106.7 162.7 108.5 160 Z " /><path fill="rgb(44,35,33)" stroke="rgb(44,35,33)" stroke-width="1" opacity="1" d="M 111.5 161 L 116 163.5 L 114.5 164 L 111 163 L 111.5 161 Z " /><path fill="rgb(44,35,33)" stroke="rgb(44,35,33)" stroke-width="1" opacity="1" d="M 111.5 182 Q 118.5 180.9 122 183.5 L 117.5 184 Q 116.2 181.8 111.5 183 L 111.5 182 Z " /><path fill="rgb(44,35,33)" stroke="rgb(44,35,33)" stroke-width="1" opacity="1" d="M 86 278 L 90 280.5 L 92 287.5 L 92 292.5 L 91 292.5 L 90.5 287 L 89.5 289 L 89 285.5 L 90 283.5 L 86 278 Z " /><path fill="rgb(44,35,33)" stroke="rgb(44,35,33)" stroke-width="1" opacity="1" d="M 149.5 285 Q 155.3 284.3 156 288.5 L 155.5 291 L 153 286 Q 148.6 287 149.5 285 Z " /><path fill="rgb(44,35,33)" stroke="rgb(44,35,33)" stroke-width="1" opacity="1" d="M 148.5 288 Q 153.3 287.3 154 290.5 L 153.5 293 L 151.5 289 Q 144.8 288.3 143.5 293 L 146.5 289 L 148.5 288 Z " /><path fill="rgb(199,182,173)" stroke="rgb(199,182,173)" stroke-width="1" opacity="1" d="M 104.5 65 L 121.5 65 L 123 66.5 L 139 103.5 Q 125.8 104.8 117 110.5 L 119 117.5 L 115.5 119 L 107 115.5 L 100.5 104 L 90 95.5 L 88.5 93 L 87 93.5 L 92 78.5 L 99 66 L 104.5 65 Z " /><path fill="rgb(199,182,173)" stroke="rgb(199,182,173)" stroke-width="1" opacity="1" d="M 90 115 Q 93.5 113.9 92 121.5 L 96 124.5 L 94.5 125 L 91 122.5 L 90 115 Z " /><path fill="rgb(199,182,173)" stroke="rgb(199,182,173)" stroke-width="1" opacity="1" d="M 86.5 119 L 91.5 129 L 97 131 Q 96.6 138.1 90.5 141 L 83 139 L 83 130.5 L 86.5 119 Z " /><path fill="rgb(199,182,173)" stroke="rgb(199,182,173)" stroke-width="1" opacity="1" d="M 109.5 121 L 113 123.5 L 114 136.5 L 111 140.5 L 111 143.5 L 108 146.5 L 107 152.5 L 103.5 156 Q 97.3 157.3 96 153.5 L 95.5 151 L 94 155.5 Q 99 159 100 165 L 109.5 166 L 114.5 169 Q 121 167.5 124 162.5 L 125 159.5 L 116 154.5 L 115 151 L 117.5 150 Q 118.8 152.3 120 149.5 L 120.5 148 Q 126.4 155.1 141.5 153 L 152 148 L 159.5 134 L 166.5 133 L 173 134 L 171 128.5 L 188.5 125 L 188 126.5 L 189.5 129 L 193 128 L 191 132 L 188 132 L 188 137.5 L 184 140 Q 185.5 144.5 181 143 L 180.5 141 L 172.5 141 L 169 143.5 L 172 145 L 172 147 L 163.5 147 L 163 149 L 160.5 149 L 158 150.5 L 159 153.5 L 158 156.5 L 158.5 158 Q 154.5 157.5 154 160.5 Q 154.5 164.5 151.5 165 L 149 166.5 L 146 171.5 L 147 174 L 144 175.5 L 139.5 184 L 138 181 L 133.5 182 L 124.5 178 L 119.5 179 L 112.5 176 L 102.5 175 Q 101.1 172.4 96.5 173 L 89 168.5 L 87.5 163 L 86 163.5 L 87 161.5 L 85 157.5 L 83 150.5 L 83 143.5 L 84.5 144 Q 97.5 145.5 101 137.5 L 105.5 126 L 107.5 129 L 109.5 121 Z " /><path fill="rgb(199,182,173)" stroke="rgb(199,182,173)" stroke-width="1" opacity="1" d="M 214.5 123 L 212.5 126 L 214.5 123 Z " /><path fill="rgb(199,182,173)" stroke="rgb(199,182,173)" stroke-width="1" opacity="1" d="M 133.5 124 L 133 125.5 Q 133.3 130.3 136.5 132 L 139 132.5 L 136.5 133 L 132 130.5 Q 130.8 125.3 133.5 124 Z " /><path fill="rgb(199,182,173)" stroke="rgb(199,182,173)" stroke-width="1" opacity="1" d="M 145.5 125 L 152 128.5 L 149.5 131 L 141.5 133 L 141.5 132 L 144 130.5 L 145.5 125 Z " /><path fill="rgb(199,182,173)" stroke="rgb(199,182,173)" stroke-width="1" opacity="1" d="M 125.5 131 Q 129.3 130.3 130 132.5 L 132.5 136 Q 135.3 139.7 142.5 139 L 149.5 137 L 150 138.5 Q 148.2 145.7 142.5 149 Q 139.3 151.3 132.5 150 Q 126 148.5 123 143.5 L 122 140.5 L 125.5 131 Z " /><path fill="rgb(199,182,173)" stroke="rgb(199,182,173)" stroke-width="1" opacity="1" d="M 216.5 163 Q 222 161.5 223.5 164 L 225.5 163 L 226.5 164 L 246.5 166 L 269.5 173 Q 280.3 179.3 288 188.5 L 287.5 191 L 283.5 188 Q 278.8 190.3 283 192.5 L 286.5 197 Q 288.8 197.8 288 195.5 L 288 193.5 L 288.5 192 Q 291.5 192.5 291 196.5 L 290 198.5 L 291 202 L 287 201 L 285.5 197 L 284 201 L 282 201.5 L 282.5 203 L 281 203.5 L 281 205.5 L 281 208 Q 278 206.8 279 210.5 L 276 215 L 274 215 Q 275.1 217.7 272.5 217 L 271 220 L 267 221 L 262.5 228 L 258.5 230 L 256.5 229 L 247 236.5 L 248.5 237 L 252.5 235 L 251.5 237 L 246.5 239 L 246.5 237 L 242 239.5 L 243 241.5 L 241.5 242 L 239.5 241 L 236 243.5 Q 238.3 244.8 235.5 246 Q 234 242.5 232.5 245 L 230 246.5 L 232 247 Q 233.3 250 229.5 249 L 227.5 248 L 225.5 252 L 221.5 251 L 218.5 255 L 215.5 254 L 212 255 Q 210.9 257.7 213.5 257 L 212.5 259 L 209 260 Q 210 257 207 258 Q 208 262.7 204.5 264 Q 199.2 263.2 198.5 267 L 196.5 266 L 190.5 270 L 177.5 271 L 169 275.5 L 171 276.5 Q 169.7 279.3 168.5 277 L 157 280 Q 155.9 277.3 158.5 278 L 162.5 275 L 171.5 272 L 179.5 266 L 186.5 265 L 193 260.5 L 194.5 258 L 196.5 259 L 197.5 257 L 199 257.5 L 199.5 256 L 201 256.5 L 201.5 255 L 203 255.5 L 203.5 254 L 205 254.5 L 205.5 253 L 207 253.5 L 207.5 252 L 209 252.5 Q 208.3 250.3 210.5 251 L 216 248 L 218 240.5 L 218 235.5 L 211 221.5 L 211 213.5 Q 212.5 210.5 214 213.5 L 218.5 219 L 227 221 L 229.5 225 L 235 227.5 L 234.5 229 L 236 229.5 L 231 235.5 L 232.5 236 L 240.5 229 L 246.5 228 L 255 220.5 L 262 210.5 L 262 200.5 L 256.5 192 L 254 190.5 Q 254.8 188.3 252.5 189 L 248.5 185 L 230.5 178 L 208 176 Q 207 168.7 211.5 166 L 214.5 164 L 217.5 165 L 217.5 164 L 216.5 163 Z " /><path fill="rgb(199,182,173)" stroke="rgb(199,182,173)" stroke-width="1" opacity="1" d="M 295.5 194 L 307 205.5 L 310 218.5 L 314 223.5 L 314 239 L 302.5 244 L 298 242.5 L 299 244.5 L 297.5 245 L 295 243.5 L 294 249 L 290.5 250 Q 289.1 246 284 247 L 283 240.5 L 286 235 Q 289.8 236 291 233.5 L 291 226.5 L 294 223.5 L 297 210.5 L 296 205.5 Q 298.3 204.3 297 199.5 L 295.5 194 Z " /><path fill="rgb(199,182,173)" stroke="rgb(199,182,173)" stroke-width="1" opacity="1" d="M 105.5 198 L 111.5 200 L 113 199.5 L 115 202.5 Q 118 204.8 117 210 L 111.5 211 L 102 207.5 Q 100.3 200.7 103.5 199 L 105.5 198 Z " /><path fill="rgb(199,182,173)" stroke="rgb(199,182,173)" stroke-width="1" opacity="1" d="M 97.5 206 L 98 207.5 L 86 231.5 L 85 242.5 L 84 243.5 L 87 260.5 L 103 292.5 L 98 293 L 96 285 Q 90.8 286.8 93 279.5 L 88.5 274 Q 85.5 274.9 87 270.5 L 81.5 261 L 80 271.5 L 83 281.5 L 81 285 L 83 285.5 L 82 290.5 L 85 288.5 L 85.5 287 L 86 290.5 L 85 293 L 55.5 293 L 55 291.5 L 52 284.5 L 51 270.5 L 50 269.5 L 53 262.5 L 53 258.5 L 52 256.5 L 53 256.5 L 53.5 258 Q 56.4 244.4 64.5 236 L 85 223.5 Q 89 212.5 97.5 206 Z M 82 235 L 78 241 L 80 249 L 82 237 L 82 235 Z M 81 256 L 79 260 L 81 261 L 81 256 Z " /><path fill="rgb(199,182,173)" stroke="rgb(199,182,173)" stroke-width="1" opacity="1" d="M 99.5 211 L 101 215 Q 97.2 216.2 99.5 211 Z " /><path fill="rgb(199,182,173)" stroke="rgb(199,182,173)" stroke-width="1" opacity="1" d="M 245.5 219 Q 247.8 218.3 247 220.5 L 243 223 L 245.5 219 Z " /><path fill="rgb(199,182,173)" stroke="rgb(199,182,173)" stroke-width="1" opacity="1" d="M 123.5 240 L 124 243.5 L 123 243.5 L 123.5 240 Z " /><path fill="rgb(199,182,173)" stroke="rgb(199,182,173)" stroke-width="1" opacity="1" d="M 123.5 246 L 124 249.5 L 123 249.5 L 123.5 246 Z " /><path fill="rgb(199,182,173)" stroke="rgb(199,182,173)" stroke-width="1" opacity="1" d="M 295.5 258 L 298.5 262 L 314 269 L 314 292.5 L 313.5 293 L 239.5 293 L 239.5 292 L 258.5 281 L 259 282.5 L 258.5 284 L 261.5 283 L 264.5 285 Q 268.4 282.7 268 277 L 273.5 276 L 275.5 276 L 280.5 274 L 282.5 275 Q 287 273.6 286 268 L 289 266.5 L 288 263.5 L 292 261 Q 290.8 258 294.5 259 L 295.5 258 Z " /><path fill="rgb(199,182,173)" stroke="rgb(199,182,173)" stroke-width="1" opacity="1" d="M 51.5 259 L 52 260.5 L 47 274.5 L 53 292.5 L 42.5 293 L 43 291.5 L 47 269.5 L 51.5 259 Z " /><path fill="rgb(199,182,173)" stroke="rgb(199,182,173)" stroke-width="1" opacity="1" d="M 209 263 L 211 263.5 L 209 264.5 L 209 263 Z " /><path fill="rgb(199,182,173)" stroke="rgb(199,182,173)" stroke-width="1" opacity="1" d="M 182.5 272 Q 186.3 271 185 274 L 179.5 275 L 179.5 274 L 182.5 272 Z " /><path fill="rgb(199,182,173)" stroke="rgb(199,182,173)" stroke-width="1" opacity="1" d="M 168.5 287 Q 171.5 288.5 168.5 290 Q 165.5 288.5 168.5 287 Z " /><path fill="rgb(207,160,134)" stroke="rgb(207,160,134)" stroke-width="1" opacity="1" d="M 108.5 64 L 111 64.5 L 108.5 65 L 108.5 64 Z " /><path fill="rgb(207,160,134)" stroke="rgb(207,160,134)" stroke-width="1" opacity="1" d="M 98.5 67 L 97.5 69 L 98.5 67 Z " /><path fill="rgb(207,160,134)" stroke="rgb(207,160,134)" stroke-width="1" opacity="1" d="M 88.5 93 L 95 100.5 L 88.5 95 L 87 94.5 L 88.5 93 Z " /><path fill="rgb(207,160,134)" stroke="rgb(207,160,134)" stroke-width="1" opacity="1" d="M 86.5 101 L 87 103 L 89.5 103 L 103.5 111 L 105 110.5 L 108 116.5 L 106.5 117 L 104 115.5 L 103.5 117 L 98.5 111 L 88.5 107 L 86 104.5 L 86.5 101 Z " /><path fill="rgb(207,160,134)" stroke="rgb(207,160,134)" stroke-width="1" opacity="1" d="M 96.5 101 L 98.5 104 L 96.5 101 Z " /><path fill="rgb(207,160,134)" stroke="rgb(207,160,134)" stroke-width="1" opacity="1" d="M 100.5 104 L 101.5 106 L 100.5 104 Z " /><path fill="rgb(207,160,134)" stroke="rgb(207,160,134)" stroke-width="1" opacity="1" d="M 134.5 104 L 137 104.5 L 134.5 105 L 134.5 104 Z " /><path fill="rgb(207,160,134)" stroke="rgb(207,160,134)" stroke-width="1" opacity="1" d="M 130.5 105 L 133 105.5 L 130.5 106 L 130.5 105 Z " /><path fill="rgb(207,160,134)" stroke="rgb(207,160,134)" stroke-width="1" opacity="1" d="M 126.5 106 L 129 106.5 L 123.5 108 L 123.5 107 L 126.5 106 Z " /><path fill="rgb(207,160,134)" stroke="rgb(207,160,134)" stroke-width="1" opacity="1" d="M 102.5 107 L 103.5 109 L 102.5 107 Z " /><path fill="rgb(207,160,134)" stroke="rgb(207,160,134)" stroke-width="1" opacity="1" d="M 120.5 108 L 122 108.5 L 118 110 L 117.5 112 L 117 110.5 L 120.5 108 Z " /><path fill="rgb(207,160,134)" stroke="rgb(207,160,134)" stroke-width="1" opacity="1" d="M 140.5 111 Q 144.9 109.5 144 112.5 L 147 117 L 130.5 115 L 119.5 117 L 118.5 115 L 120.5 114 L 122.5 114 L 132.5 112 L 139.5 112 L 140.5 111 Z " /><path fill="rgb(207,160,134)" stroke="rgb(207,160,134)" stroke-width="1" opacity="1" d="M 87.5 115 L 92.5 124 L 95.5 125 Q 96.8 122.7 98 125.5 Q 99 130 96.5 131 L 90 127.5 Q 85.7 123 87.5 115 Z " /><path fill="rgb(207,160,134)" stroke="rgb(207,160,134)" stroke-width="1" opacity="1" d="M 124.5 120 Q 128.9 118.5 128 121.5 L 127 125.5 L 128 129 L 132 129 L 132 130.5 L 138.5 133 L 140.5 132 L 142.5 133 L 145.5 132 L 145.5 134 L 150.5 133 L 151 135.5 L 148.5 138 L 138.5 139 L 130 133.5 L 128.5 131 Q 124.8 130.3 124 132.5 L 123 140 Q 120 141.3 121 137.5 L 120 136.5 L 120 125.5 L 124.5 120 Z " /><path fill="rgb(207,160,134)" stroke="rgb(207,160,134)" stroke-width="1" opacity="1" d="M 108.5 121 L 109 124.5 L 107.5 129 L 105.5 126 L 104 126.5 L 105 123 L 108.5 121 Z " /><path fill="rgb(207,160,134)" stroke="rgb(207,160,134)" stroke-width="1" opacity="1" d="M 217.5 122 L 221 122.5 Q 214.7 127.2 212 135.5 L 209 150.5 L 210 153 L 223 149 L 225 143.5 L 222 134 Q 219 135.3 220 131.5 Q 217.2 129.7 221.5 128 Q 225.9 126.5 225 129.5 L 229 136.5 L 229 141 L 231.5 140 L 232 143.5 L 225 156 L 219.5 160 L 211.5 163 L 202.5 163 L 198 167.5 L 195 179.5 L 196 179.5 Q 198.9 170.4 205.5 165 L 207.5 164 L 208 165.5 L 200 181.5 L 200 186.5 L 196.5 191 L 192.5 194 Q 190.3 193.3 191 189.5 L 194 182.5 L 192 183.5 L 187.5 190 Q 185.3 189.3 186 191.5 L 170.5 201 L 159.5 201 L 156.5 200 L 154 201 Q 155.1 203.7 152.5 203 Q 151 199.5 149.5 202 L 147.5 201 L 143.5 206 L 134 211 Q 135.3 214 131.5 213 L 126.5 216 L 119.5 217 L 111.5 213 L 100.5 210 L 99 210.5 Q 101.5 209 98 207.5 Q 99.6 199.4 96 196.5 L 96 194.5 L 95 192.5 L 96 191.5 L 94 187.5 Q 87.8 176.7 86 161.5 L 87 161.5 Q 87.3 167.3 90.5 170 L 102.5 175 L 109 175.5 L 103.5 177 Q 101.6 172.9 94.5 174 Q 90.2 175.8 93 177.5 L 95 180.5 L 97 189.5 L 99.5 193 L 108.5 196 L 113 196 L 115.5 192 L 122.5 191 L 130.5 186 L 134 186 Q 135.3 183 131.5 184 L 118.5 181 L 110 176.5 L 112.5 176 Q 116 179.5 123.5 179 L 125.5 178 L 134.5 182 L 138 181 L 139.5 184 L 145.5 174 Q 147.8 174.8 147 172.5 Q 144.5 171 148 169.5 L 150.5 165 L 154 162.5 Q 153.5 158.5 156.5 158 L 159 157.5 L 158 154.5 L 159 151.5 L 158.5 150 L 163 149 L 163 147 L 171.5 147 L 172 145 L 169 143.5 Q 172.3 139.1 181 141 Q 179.9 144.3 184 143 Q 182.5 139.2 185.5 140 Q 189.5 138.3 188 132 L 191 132 L 193 128 L 189.5 129 L 188 126.5 Q 189.6 123.5 195 125 L 196 138.5 L 197.5 140 L 199.5 140 L 204 135.5 L 209 127.5 L 210 123 L 214.5 124 L 217.5 122 Z M 106 198 L 104 199 Q 100 201 102 208 L 112 211 L 117 210 Q 118 205 115 203 L 113 200 L 112 200 L 106 198 Z " /><path fill="rgb(207,160,134)" stroke="rgb(207,160,134)" stroke-width="1" opacity="1" d="M 151.5 129 L 150.5 131 L 151.5 129 Z " /><path fill="rgb(207,160,134)" stroke="rgb(207,160,134)" stroke-width="1" opacity="1" d="M 160.5 130 L 165 132.5 L 159 134 L 160.5 130 Z " /><path fill="rgb(207,160,134)" stroke="rgb(207,160,134)" stroke-width="1" opacity="1" d="M 113.5 137 L 120 149.5 L 116.5 151 Q 114.3 150.3 115 152.5 L 117.5 156 L 125 159.5 L 119.5 167 L 113.5 169 L 109.5 166 L 100 165 L 99 162.5 L 101.5 164 L 108.5 164 Q 111.2 166.8 117.5 166 L 120 164.5 L 119 162 L 115.5 162 L 105.5 157 Q 104.8 159.8 100.5 159 L 95 154.5 L 94.5 156 L 94 153.5 L 95.5 151 L 98.5 156 Q 105.8 157.3 107 152.5 L 108 146.5 L 111 143.5 Q 110.4 138.4 113.5 137 Z " /><path fill="rgb(207,160,134)" stroke="rgb(207,160,134)" stroke-width="1" opacity="1" d="M 95.5 157 L 97.5 160 L 95.5 157 Z " /><path fill="rgb(207,160,134)" stroke="rgb(207,160,134)" stroke-width="1" opacity="1" d="M 216.5 162 L 215.5 164 L 216.5 162 Z " /><path fill="rgb(207,160,134)" stroke="rgb(207,160,134)" stroke-width="1" opacity="1" d="M 101.5 183 Q 102.8 185.3 107.5 184 L 112 186.5 L 109.5 190 Q 101.5 191.5 99 187.5 Q 97.5 183.1 100.5 184 L 101.5 183 Z " /><path fill="rgb(207,160,134)" stroke="rgb(207,160,134)" stroke-width="1" opacity="1" d="M 205.5 188 L 206 190.5 Q 203.5 192 205 197.5 L 208 201.5 L 212 212.5 L 211 213.5 L 211 221.5 L 218 235.5 L 218 240.5 L 216 248 L 156.5 277 L 135.5 273 L 130 269.5 Q 123.5 263 123 250.5 L 124 249.5 L 125.5 225 L 126 232.5 Q 130.8 236.8 130 245 L 132 245 L 132 250 Q 134.7 248.9 134 251.5 L 137 257 L 142.5 254 L 144.5 257 L 145 253.5 L 144 248.5 L 147 249.5 L 146 247.5 L 148 247 Q 146.9 249.7 149.5 249 L 149 247.5 Q 149.8 245.3 147.5 246 L 147.5 245 L 149 244.5 L 148 241.5 L 152 240 L 152.5 238 L 154.5 239 L 156 236 L 158 236 Q 156.9 233.3 159.5 234 L 161 230 L 166 231 L 167.5 234 L 168 232 L 173 232 L 173 230.5 L 174 230.5 L 174.5 232 L 176.5 229 L 178 228.5 L 177.5 227 Q 179 230.5 180.5 228 L 182.5 229 L 184.5 229 L 187.5 229 Q 189.4 232.6 194 232 L 196 225 Q 198.7 226.1 198 223.5 L 203 215.5 L 203 209.5 L 205 201.5 L 203 198.5 L 205.5 188 Z " /><path fill="rgb(195,136,110)" stroke="rgb(195,136,110)" stroke-width="1" opacity="1" d="M 116.5 64 L 121 64.5 L 116.5 65 L 116.5 64 Z " /><path fill="rgb(195,136,110)" stroke="rgb(195,136,110)" stroke-width="1" opacity="1" d="M 86 95 L 88.5 95 L 102 106.5 L 104 110.5 L 101.5 109 L 98.5 109 Q 94.3 104 87 103 L 85 99.5 L 86 95 Z M 89 99 L 89 101 L 99 107 L 100 107 L 92 99 L 89 99 Z " /><path fill="rgb(195,136,110)" stroke="rgb(195,136,110)" stroke-width="1" opacity="1" d="M 135.5 95 L 137 98.5 L 136 98.5 L 135.5 95 Z " /><path fill="rgb(195,136,110)" stroke="rgb(195,136,110)" stroke-width="1" opacity="1" d="M 138.5 102 L 140 105 L 137 104.5 L 139 103.5 L 138.5 102 Z " /><path fill="rgb(195,136,110)" stroke="rgb(195,136,110)" stroke-width="1" opacity="1" d="M 86.5 105 L 87.5 107 Q 84.7 107.7 86.5 105 Z " /><path fill="rgb(195,136,110)" stroke="rgb(195,136,110)" stroke-width="1" opacity="1" d="M 133.5 105 L 136 105.5 L 133.5 106 L 133.5 105 Z " /><path fill="rgb(195,136,110)" stroke="rgb(195,136,110)" stroke-width="1" opacity="1" d="M 127.5 107 L 127 108.5 L 126 112 L 132 112.5 L 121.5 115 L 119.5 115 L 118 114.5 L 122.5 108 L 124 108.5 L 122 109 Q 120.3 114.2 124 113 L 125 108 L 127.5 107 Z " /><path fill="rgb(195,136,110)" stroke="rgb(195,136,110)" stroke-width="1" opacity="1" d="M 140.5 110 L 143 110.5 Q 139.9 112.9 133.5 112 L 133.5 111 Q 139 112.5 140.5 110 Z " /><path fill="rgb(195,136,110)" stroke="rgb(195,136,110)" stroke-width="1" opacity="1" d="M 87.5 111 L 90 112.5 L 89 116.5 L 90 119.5 L 89 119.5 L 87.5 111 Z " /><path fill="rgb(195,136,110)" stroke="rgb(195,136,110)" stroke-width="1" opacity="1" d="M 98.5 111 L 100.5 111 L 106 116.5 L 104 117 L 100.5 112 Q 98.7 114.5 98.5 111 Z " /><path fill="rgb(195,136,110)" stroke="rgb(195,136,110)" stroke-width="1" opacity="1" d="M 91.5 114 L 93 114 L 93 118 L 94.5 118 L 94.5 119 L 92 117.5 L 91.5 114 Z " /><path fill="rgb(195,136,110)" stroke="rgb(195,136,110)" stroke-width="1" opacity="1" d="M 130.5 115 L 135 115.5 L 130.5 116 L 130.5 115 Z " /><path fill="rgb(195,136,110)" stroke="rgb(195,136,110)" stroke-width="1" opacity="1" d="M 147.5 116 L 148 118 L 146 117.5 L 147.5 116 Z " /><path fill="rgb(195,136,110)" stroke="rgb(195,136,110)" stroke-width="1" opacity="1" d="M 128 119 L 141 120.5 Q 133.4 120 130 122 L 129 127 Q 131.7 128.1 131 125.5 L 136.5 122 L 136.5 123 L 132 125.5 Q 133.6 131.2 128 129 L 127 122.5 L 128 119 Z " /><path fill="rgb(195,136,110)" stroke="rgb(195,136,110)" stroke-width="1" opacity="1" d="M 171.5 119 L 171.5 121 L 174.5 120 L 173.5 122 Q 169.1 123.5 170 120.5 L 171.5 119 Z " /><path fill="rgb(195,136,110)" stroke="rgb(195,136,110)" stroke-width="1" opacity="1" d="M 107.5 120 L 108 121.5 L 105 123 Q 103.9 120.3 106.5 121 L 107.5 120 Z " /><path fill="rgb(195,136,110)" stroke="rgb(195,136,110)" stroke-width="1" opacity="1" d="M 222.5 121 L 231.5 121 L 232 122.5 L 236 134.5 Q 233.5 136 235 141.5 L 231 150.5 L 222.5 159 L 214.5 164 L 211 164 L 207 174.5 L 206 187.5 L 204 191.5 Q 205.5 197 203 198.5 Q 205.6 199.9 205 204.5 L 203 209.5 L 202 218.5 L 198 225 Q 195.3 223.9 196 226.5 L 194 232 L 183.5 228 L 181.5 228 L 179.5 229 L 177.5 229 L 175 230.5 L 174.5 232 L 173.5 230 L 173 232 L 168 232 L 168 233.5 L 166 232.5 Q 166.8 229.9 163.5 231 L 161 230 L 159.5 234 L 158 234 L 158 236 Q 155.3 234.9 156 237.5 L 153.5 239 L 152 238.5 Q 152.8 241.1 149.5 240 L 148 243.5 L 148.5 245 L 147 245.5 L 149 246 L 150 248.5 L 148 249 Q 149.1 246.3 146.5 247 L 147 248.5 L 146.5 250 L 144 248.5 L 145 256.5 L 143 255.5 L 142.5 254 L 137 257 L 134 250 L 132 250 Q 133.5 243.7 130 244.5 L 130 240.5 L 126 232.5 L 125 220 Q 108.8 221.5 101 213.5 L 99 209.5 L 100.5 210 L 111.5 213 L 119.5 217 L 123.5 217 L 128.5 214 L 134 213 Q 132.9 210.3 135.5 211 L 146 203.5 L 147.5 201 L 149.5 202 Q 151 199.5 152.5 203 L 155.5 201 L 158.5 200 L 159.5 201 L 170.5 201 L 186 191.5 Q 185.3 189.3 187.5 190 L 193.5 182 L 194 183.5 L 191 189.5 L 191 192.5 Q 193.2 196.2 195.5 191 L 198 189.5 Q 201 187.5 200 181.5 L 208 164.5 L 206.5 165 L 203 167.5 L 194.5 181 L 195 179.5 L 197 169.5 L 202.5 163 L 211.5 163 L 219.5 160 L 225 156 L 231 146.5 L 232 140.5 L 230.5 141 Q 227.1 141.9 229 136.5 Q 225.3 133.4 225 128 Q 220.3 127 219 130.5 L 220 134 Q 223 132.8 222 136.5 Q 225 139.5 225 145.5 L 223 149 L 210 153 L 209 149.5 L 211 144.5 L 212 135.5 Q 215.2 126.2 222.5 121 Z " /><path fill="rgb(195,136,110)" stroke="rgb(195,136,110)" stroke-width="1" opacity="1" d="M 214.5 122 L 217 122.5 L 214.5 123 L 214.5 122 Z " /><path fill="rgb(195,136,110)" stroke="rgb(195,136,110)" stroke-width="1" opacity="1" d="M 209.5 123 L 210 124.5 Q 206.7 134.2 199.5 140 L 196 138.5 L 195 125.5 L 196 125.5 L 197 135.5 L 198.5 139 L 203 134.5 L 209.5 123 Z " /><path fill="rgb(195,136,110)" stroke="rgb(195,136,110)" stroke-width="1" opacity="1" d="M 171.5 129 L 173 134 L 167 133.5 L 172 133 L 171.5 129 Z " /><path fill="rgb(195,136,110)" stroke="rgb(195,136,110)" stroke-width="1" opacity="1" d="M 151.5 130 L 151.5 133 L 145.5 134 L 146.5 132 L 151.5 130 Z " /><path fill="rgb(195,136,110)" stroke="rgb(195,136,110)" stroke-width="1" opacity="1" d="M 95.5 154 L 100.5 159 L 103.5 159 L 107.5 157 L 115.5 162 L 119 162 L 120 164.5 Q 117.9 166.9 112.5 166 Q 109.2 162.8 101.5 164 L 98 160.5 L 99.5 161 L 101 160.5 L 95 156.5 L 95.5 154 Z M 108 160 L 106 162 L 115 165 L 117 165 L 111 160 L 108 160 Z " /><path fill="rgb(195,136,110)" stroke="rgb(195,136,110)" stroke-width="1" opacity="1" d="M 94.5 174 Q 101.9 173.1 104.5 177 L 109.5 176 Q 115.4 181.1 125 182.5 L 122.5 183 L 117.5 181 L 98.5 178 L 99.5 180 L 106.5 183 L 125.5 184 L 130.5 183 L 134 184 Q 135.3 187.3 130.5 186 L 122.5 191 L 115.5 192 L 113 194.5 Q 113.9 197.9 108.5 196 L 98 191.5 L 95 179 Q 92.3 180.1 93 177.5 Q 90.2 175.8 94.5 174 Z M 102 183 L 101 184 Q 98 183 99 188 Q 102 191 110 190 L 112 187 L 108 184 Q 103 185 102 183 Z M 127 184 L 127 185 L 129 185 L 127 184 Z " /><path fill="rgb(195,136,110)" stroke="rgb(195,136,110)" stroke-width="1" opacity="1" d="M 87.5 276 L 91 278.5 L 88.5 277 L 87.5 276 Z " /><path fill="rgb(195,136,110)" stroke="rgb(195,136,110)" stroke-width="1" opacity="1" d="M 85.5 281 L 88 282 L 87.5 285 L 87 283 Q 83.8 284 85.5 281 Z " /><path fill="rgb(195,136,110)" stroke="rgb(195,136,110)" stroke-width="1" opacity="1" d="M 155.5 286 L 156.5 288 L 155.5 286 Z " /><path fill="rgb(195,136,110)" stroke="rgb(195,136,110)" stroke-width="1" opacity="1" d="M 148.5 291 L 151 291.5 L 146.5 293 L 146.5 292 L 148.5 291 Z " /><path fill="rgb(155,154,160)" stroke="rgb(155,154,160)" stroke-width="1" opacity="1" d="M 179.5 12 L 182 12.5 L 179.5 13 L 179.5 12 Z " /><path fill="rgb(155,154,160)" stroke="rgb(155,154,160)" stroke-width="1" opacity="1" d="M 184.5 12 L 188 12.5 L 184.5 13 L 184.5 12 Z " /><path fill="rgb(155,154,160)" stroke="rgb(155,154,160)" stroke-width="1" opacity="1" d="M 167.5 13 L 171 13.5 L 167.5 14 L 167.5 13 Z " /><path fill="rgb(155,154,160)" stroke="rgb(155,154,160)" stroke-width="1" opacity="1" d="M 174.5 13 L 177 13.5 L 174.5 14 L 174.5 13 Z " /><path fill="rgb(155,154,160)" stroke="rgb(155,154,160)" stroke-width="1" opacity="1" d="M 134.5 15 L 137 15.5 L 134.5 16 L 134.5 15 Z " /><path fill="rgb(155,154,160)" stroke="rgb(155,154,160)" stroke-width="1" opacity="1" d="M 116.5 19 L 115.5 21 L 116.5 19 Z " /><path fill="rgb(155,154,160)" stroke="rgb(155,154,160)" stroke-width="1" opacity="1" d="M 113.5 21 L 112.5 23 L 113.5 21 Z " /><path fill="rgb(155,154,160)" stroke="rgb(155,154,160)" stroke-width="1" opacity="1" d="M 110.5 23 L 103.5 31 L 110.5 23 Z " /><path fill="rgb(155,154,160)" stroke="rgb(155,154,160)" stroke-width="1" opacity="1" d="M 225.5 25 L 228.5 29 L 225.5 25 Z " /><path fill="rgb(155,154,160)" stroke="rgb(155,154,160)" stroke-width="1" opacity="1" d="M 101.5 31 L 96.5 37 L 101.5 31 Z " /><path fill="rgb(155,154,160)" stroke="rgb(155,154,160)" stroke-width="1" opacity="1" d="M 232.5 31 L 235.5 35 L 232.5 31 Z " /><path fill="rgb(155,154,160)" stroke="rgb(155,154,160)" stroke-width="1" opacity="1" d="M 236.5 36 L 237.5 38 L 236.5 36 Z " /><path fill="rgb(155,154,160)" stroke="rgb(155,154,160)" stroke-width="1" opacity="1" d="M 238.5 39 L 239.5 41 L 238.5 39 Z " /><path fill="rgb(155,154,160)" stroke="rgb(155,154,160)" stroke-width="1" opacity="1" d="M 92.5 40 L 91.5 42 L 92.5 40 Z " /><path fill="rgb(155,154,160)" stroke="rgb(155,154,160)" stroke-width="1" opacity="1" d="M 89.5 42 L 87.5 45 L 89.5 42 Z " /><path fill="rgb(155,154,160)" stroke="rgb(155,154,160)" stroke-width="1" opacity="1" d="M 84.5 47 L 83.5 49 L 84.5 47 Z " /><path fill="rgb(155,154,160)" stroke="rgb(155,154,160)" stroke-width="1" opacity="1" d="M 81.5 51 L 79.5 54 L 81.5 51 Z " /><path fill="rgb(155,154,160)" stroke="rgb(155,154,160)" stroke-width="1" opacity="1" d="M 71.5 68 L 70.5 70 L 71.5 68 Z " /><path fill="rgb(155,154,160)" stroke="rgb(155,154,160)" stroke-width="1" opacity="1" d="M 63.5 85 L 64 92.5 L 63 92.5 L 63.5 85 Z " /><path fill="rgb(155,154,160)" stroke="rgb(155,154,160)" stroke-width="1" opacity="1" d="M 63.5 94 L 64 97.5 L 63 97.5 L 63.5 94 Z " /><path fill="rgb(155,154,160)" stroke="rgb(155,154,160)" stroke-width="1" opacity="1" d="M 248.5 98 L 249 100.5 L 248 100.5 L 248.5 98 Z " /><path fill="rgb(155,154,160)" stroke="rgb(155,154,160)" stroke-width="1" opacity="1" d="M 76.5 102 L 77 104.5 L 76 104.5 L 76.5 102 Z " /><path fill="rgb(155,154,160)" stroke="rgb(155,154,160)" stroke-width="1" opacity="1" d="M 82.5 104 Q 84.8 103.3 84 105.5 L 82.5 104 Z " /><path fill="rgb(155,154,160)" stroke="rgb(155,154,160)" stroke-width="1" opacity="1" d="M 93.5 115 L 95 117.5 L 93 116.5 L 93.5 115 Z " /><path fill="rgb(155,154,160)" stroke="rgb(155,154,160)" stroke-width="1" opacity="1" d="M 77.5 123 L 78 125.5 L 77 125.5 L 77.5 123 Z " /><path fill="rgb(155,154,160)" stroke="rgb(155,154,160)" stroke-width="1" opacity="1" d="M 135.5 123 L 137 123.5 L 135 124.5 L 137 125.5 L 135.5 126 L 134 125.5 L 133.5 127 L 133 125.5 L 135.5 123 Z " /><path fill="rgb(155,154,160)" stroke="rgb(155,154,160)" stroke-width="1" opacity="1" d="M 113.5 124 L 114 127.5 L 113 127.5 L 113.5 124 Z " /><path fill="rgb(155,154,160)" stroke="rgb(155,154,160)" stroke-width="1" opacity="1" d="M 144 124 L 152 127.5 L 150.5 128 L 145.5 125 L 144.5 128 L 144 124 Z " /><path fill="rgb(155,154,160)" stroke="rgb(155,154,160)" stroke-width="1" opacity="1" d="M 143.5 130 L 142.5 132 L 143.5 130 Z " /><path fill="rgb(155,154,160)" stroke="rgb(155,154,160)" stroke-width="1" opacity="1" d="M 240.5 133 L 241 143 L 238 141.5 L 240 141.5 L 240.5 133 Z " /><path fill="rgb(155,154,160)" stroke="rgb(155,154,160)" stroke-width="1" opacity="1" d="M 94.5 137 L 92.5 140 L 94.5 137 Z " /><path fill="rgb(155,154,160)" stroke="rgb(155,154,160)" stroke-width="1" opacity="1" d="M 146.5 145 L 144.5 148 L 146.5 145 Z " /><path fill="rgb(155,154,160)" stroke="rgb(155,154,160)" stroke-width="1" opacity="1" d="M 229.5 152 L 223.5 159 L 229.5 152 Z " /><path fill="rgb(155,154,160)" stroke="rgb(155,154,160)" stroke-width="1" opacity="1" d="M 221.5 159 L 220.5 161 L 221.5 159 Z " /><path fill="rgb(155,154,160)" stroke="rgb(155,154,160)" stroke-width="1" opacity="1" d="M 215.5 164 L 218 164.5 L 215.5 165 L 215.5 164 Z " /><path fill="rgb(155,154,160)" stroke="rgb(155,154,160)" stroke-width="1" opacity="1" d="M 207 176 L 230.5 178 L 240.5 181 L 254 189 L 255.5 192 L 258 193.5 Q 263.8 198.2 262 210.5 L 250.5 225 L 246.5 228 L 240.5 229 L 230.5 237 L 233 233.5 L 236 229.5 L 234 228.5 Q 236.3 227.3 233.5 226 Q 228.8 225.8 227 222.5 Q 227.9 219.5 223.5 221 Q 217 219.5 214 214.5 L 205 197.5 L 205 191.5 L 206 190.5 L 206 181.5 L 207 176 Z M 246 219 L 243 223 L 247 221 Q 248 218 246 219 Z " /><path fill="rgb(155,154,160)" stroke="rgb(155,154,160)" stroke-width="1" opacity="1" d="M 282.5 182 L 295 194.5 Q 297.7 197.8 297 204.5 L 296 209.5 L 297 211.5 L 294 223.5 L 291 226.5 Q 292.8 233.3 289.5 235 Q 285.1 233.5 286 236.5 L 283 242.5 L 284 247 Q 289.1 246 290.5 250 L 294 249 L 295.5 243 L 298.5 245 L 298 243.5 L 298.5 242 L 302.5 244 L 314 239 L 314 259.5 L 310 266 L 306.5 266 L 296 259.5 L 295.5 258 L 292 259 Q 293.1 261.7 290.5 261 Q 286.2 262.8 289 264.5 L 287.5 268 Q 284.5 267.1 286 271.5 L 281.5 275 L 279.5 274 L 274.5 277 L 272.5 276 L 268 277 Q 268.4 282.7 264.5 285 L 261.5 283 L 258.5 284 L 259 282.5 L 258.5 281 L 238.5 293 L 158.5 293 L 157 289.5 L 157 287.5 L 152.5 283 L 140 291.5 L 139.5 293 L 103.5 293 L 87 260.5 L 84 243.5 L 85 242.5 L 86 231.5 L 97.5 208 L 99 208 L 99 214.5 L 100.5 215 Q 102 212.5 103.5 216 L 114.5 220 L 125 220 L 125 235.5 L 124 236.5 L 124 238.5 L 123 243.5 L 124 245.5 Q 121.2 247.3 123 253.5 L 125 261.5 L 131.5 271 L 139.5 274 L 144.5 274 L 156.5 277 L 178.5 266 L 177.5 268 L 167.5 274 L 162.5 275 L 157 278 Q 155.9 280.7 158.5 280 L 168.5 277 Q 169.7 279.3 171 276.5 L 169 275.5 L 174.5 272 L 190.5 270 L 197.5 266 L 198.5 267 L 201.5 264 Q 206.3 264.8 207 261.5 Q 205.7 256.7 209 258 Q 207.9 260.7 210.5 260 L 214 257.5 L 212 257 Q 210.8 254 214.5 255 L 216.5 254 L 218.5 255 L 221.5 251 L 225.5 252 L 227.5 248 L 233.5 244 Q 235.3 247.8 237 244.5 Q 234.8 243.3 237.5 242 L 240.5 241 L 242.5 242 L 242 240.5 L 243.5 238 L 257.5 229 L 259.5 230 L 264 226.5 L 267 221 L 271 220 L 272.5 217 L 274 217 L 274 215 Q 276.7 216.1 276 213.5 Q 279.7 212.2 279 208 Q 282 209.3 281 205.5 L 281.5 203 L 283 202.5 L 282.5 201 Q 285.1 201.8 284 198.5 Q 288.5 196 283 193.5 L 281 190.5 Q 282.8 186.2 284.5 189 L 287.5 191 L 288 188.5 L 282.5 182 Z M 289 192 L 287 195 L 288 197 L 286 198 L 287 201 L 291 202 L 290 199 L 291 197 Q 292 193 289 192 Z M 250 236 L 248 237 L 248 238 L 252 237 L 250 236 Z M 231 247 L 229 249 L 232 249 Q 233 246 231 247 Z M 209 263 L 209 265 L 211 264 L 209 263 Z M 183 272 L 180 274 L 180 275 L 185 274 Q 186 271 183 272 Z M 169 287 Q 166 289 169 290 Q 172 289 169 287 Z " /><path fill="rgb(155,154,160)" stroke="rgb(155,154,160)" stroke-width="1" opacity="1" d="M 81.5 235 L 82 236.5 L 79.5 249 L 78 240.5 L 81.5 235 Z " /><path fill="rgb(155,154,160)" stroke="rgb(155,154,160)" stroke-width="1" opacity="1" d="M 292.5 237 L 294 239.5 L 293 239.5 L 292.5 237 Z " /><path fill="rgb(155,154,160)" stroke="rgb(155,154,160)" stroke-width="1" opacity="1" d="M 57.5 246 L 57 247.5 L 50 269.5 L 51 270.5 L 52 284.5 L 55 293 L 52 291.5 L 47 274.5 L 49 271.5 L 55 248.5 L 57.5 246 Z " /><path fill="rgb(155,154,160)" stroke="rgb(155,154,160)" stroke-width="1" opacity="1" d="M 80.5 256 L 81 260.5 L 87 270.5 L 87 274 L 92 277.5 L 93 285 Q 97.1 283.3 96 287.5 L 98 293 Q 92.8 295.1 94 290.5 L 94 288.5 Q 91 286.5 92 280.5 L 88.5 276 L 86 277.5 L 85 283 Q 87.7 281.9 87 284.5 L 88 289.5 L 87 293 Q 84.3 294.1 85 291.5 L 86 287.5 L 85 287.5 L 82.5 291 L 82 286.5 L 82.5 285 Q 80.3 285.8 81 283.5 L 83 280.5 L 81 277.5 L 80 267.5 Q 82.3 266.2 81 261.5 L 79 258.5 L 80.5 256 Z " /><path fill="rgb(155,154,160)" stroke="rgb(155,154,160)" stroke-width="1" opacity="1" d="M 191.5 260 L 193 260.5 L 186.5 265 L 182.5 265 L 182.5 264 L 191.5 260 Z " /><path fill="rgb(155,154,160)" stroke="rgb(155,154,160)" stroke-width="1" opacity="1" d="M 148.5 292 L 152 292.5 L 148.5 293 L 148.5 292 Z " /></svg>